<?xml version="1.0" encoding="UTF-8"?>
<svg id="Layer_1" xmlns="http://www.w3.org/2000/svg" version="1.1" viewBox="0 0 841.9 595.3">
  <!-- Generator: Adobe Illustrator 29.0.1, SVG Export Plug-In . SVG Version: 2.1.0 Build 192)  -->
  <defs>
    <style>
      .st0 {
        fill: #ed2024;
      }

      .st1 {
        fill: #fff;
        stroke: #231f20;
        stroke-miterlimit: 10;
      }
    </style>
  </defs>
  <path class="st1" d="M461,358.2c-14.6,15-34.7,24.3-56.9,24.3-44.5,0-80.6-37.4-80.6-83.5s36.1-83.5,80.6-83.5,40.6,8.5,55,22.5l45.9-45.9c-27.1-27.9-64.8-45.2-106.5-45.2-82.4,0-149.2,67.5-149.2,150.7s66.8,150.7,149.2,150.7,79.9-17.5,107-45.6l-44.4-44.4Z"/>
  <g>
    <rect class="st0" x="340.8" y="295.5" width="10.8" height="16.4" rx=".9" ry=".9"/>
    <rect class="st0" x="362.4" y="277.9" width="10.8" height="48" rx=".9" ry=".9"/>
    <rect class="st0" x="386.5" y="256.3" width="10.8" height="89.1" rx=".9" ry=".9"/>
    <rect class="st0" x="411.1" y="231.9" width="10.8" height="131.9" rx=".9" ry=".9"/>
    <rect class="st0" x="435.2" y="262.8" width="10.8" height="73" rx=".9" ry=".9"/>
    <rect class="st0" x="459.4" y="280.8" width="10.8" height="37" rx=".9" ry=".9"/>
    <rect class="st0" x="483.9" y="256.3" width="10.8" height="86.9" rx=".9" ry=".9"/>
    <rect class="st0" x="508.1" y="228.3" width="10.8" height="138.7" rx=".9" ry=".9"/>
    <rect class="st0" x="533.1" y="250.7" width="10.8" height="96.6" rx=".9" ry=".9"/>
    <rect class="st0" x="557.7" y="274.9" width="10.8" height="51" rx=".9" ry=".9"/>
    <rect class="st0" x="581.8" y="292.7" width="10.8" height="21.2" rx=".9" ry=".9"/>
  </g>
</svg>