<?xml version="1.0" encoding="UTF-8"?>
<svg id="Layer_1" xmlns="http://www.w3.org/2000/svg" version="1.1" viewBox="0 0 841.9 595.3">
  <!-- Generator: Adobe Illustrator 29.0.1, SVG Export Plug-In . SVG Version: 2.1.0 Build 192)  -->
  <defs>
    <style>
      .st0 {
        fill: #231f20;
      }

      .st1 {
        fill: #ed2024;
      }
    </style>
  </defs>
  <path class="st0" d="M458.1,353.8c-13.5,13.9-32.2,22.5-52.7,22.5-41.2,0-74.7-34.7-74.7-77.4s33.5-77.4,74.7-77.4,37.6,7.9,51,20.8l42.5-42.6c-25.1-25.8-60.1-41.9-98.8-41.9-76.4,0-138.3,62.5-138.3,139.7s61.9,139.8,138.3,139.8,74.1-16.2,99.2-42.3l-41.2-41.2Z"/>
  <g>
    <rect class="st1" x="346.6" y="295.7" width="10" height="15.2" rx=".9" ry=".9"/>
    <rect class="st1" x="366.6" y="279.3" width="10" height="44.5" rx=".9" ry=".9"/>
    <rect class="st1" x="389" y="259.3" width="10" height="82.6" rx=".9" ry=".9"/>
    <rect class="st1" x="411.8" y="236.7" width="10" height="122.3" rx=".9" ry=".9"/>
    <rect class="st1" x="434.2" y="265.4" width="10" height="67.7" rx=".9" ry=".9"/>
    <rect class="st1" x="456.6" y="282.1" width="10" height="34.3" rx=".9" ry=".9"/>
    <rect class="st1" x="479.4" y="259.3" width="10" height="80.6" rx=".9" ry=".9"/>
    <rect class="st1" x="501.7" y="233.3" width="10" height="128.6" rx=".9" ry=".9"/>
    <rect class="st1" x="524.9" y="254.1" width="10" height="89.5" rx=".9" ry=".9"/>
    <rect class="st1" x="547.7" y="276.5" width="10" height="47.3" rx=".9" ry=".9"/>
    <rect class="st1" x="570.1" y="293" width="10" height="19.7" rx=".9" ry=".9"/>
  </g>
</svg>